<svg width="46" height="40" viewBox="0 0 46 40" fill="none" xmlns="http://www.w3.org/2000/svg">
<path fill-rule="evenodd" clip-rule="evenodd" d="M23 5C11.4 5 2 14.4 2 26C2 29.3 2.8 32.4 4.1 35.2L8.2 33.4C7.1 31.1 6.5 28.6 6.5 26C6.5 16.9 13.9 9.5 23 9.5C32.1 9.5 39.5 16.9 39.5 26C39.5 28.6 38.9 31.1 37.8 33.4L41.9 35.2C43.2 32.4 44 29.3 44 26C44 14.4 34.6 5 23 5ZM31.5 16.5L22.5 24C21.9 23.9 21.2 24.1 20.7 24.6C19.9 25.4 19.9 26.6 20.7 27.4C21.5 28.2 22.7 28.2 23.5 27.4C24 26.9 24.2 26.2 24 25.6L31.5 16.5Z" fill="currentColor"/>
</svg>
