<svg width="58" height="40" viewBox="0 0 58 40" fill="none" xmlns="http://www.w3.org/2000/svg">
<path fill-rule="evenodd" clip-rule="evenodd" d="M24 12C22 12 20.5 13 19.7 14.9L18 19H16C13.8 19 12 20.8 12 23V27.5C12 28.3 12.7 29 13.5 29H15C15 25.7 17.7 23 21 23C24.3 23 27 25.7 27 29H37C37 25.7 39.7 23 43 23C46.3 23 49 25.7 49 29H51.5C52.3 29 53 28.3 53 27.5V25C53 22.2 51 19.8 48.3 19.3L38 17.5C36 14 33.5 12 30 12H24ZM24 15H30C32 15 33.5 16 34.5 18L35.5 20H21L22.5 16C22.9 15.3 23.3 15 24 15Z" fill="currentColor"/>
<path fill-rule="evenodd" clip-rule="evenodd" d="M21 25.5C22.9 25.5 24.5 27.1 24.5 29C24.5 30.9 22.9 32.5 21 32.5C19.1 32.5 17.5 30.9 17.5 29C17.5 27.1 19.1 25.5 21 25.5ZM43 25.5C44.9 25.5 46.5 27.1 46.5 29C46.5 30.9 44.9 32.5 43 32.5C41.1 32.5 39.5 30.9 39.5 29C39.5 27.1 41.1 25.5 43 25.5Z" fill="currentColor"/>
<path d="M9 14H1V17H9V14ZM6 19.5H0V22.5H6V19.5ZM9 25H3V28H9V25Z" fill="currentColor"/>
</svg>
