<svg width="45" height="40" viewBox="0 0 45 40" fill="none" xmlns="http://www.w3.org/2000/svg">
<path d="M21.487 4.80133C21.4607 2.33217 21.5658 0.230751 21.6708 0.125681C21.8022 0.0206099 22.1436 -0.0319255 22.4589 0.0206099C22.9799 0.0987614 22.9842 0.306088 23.1636 8.94397L23.1681 9.16176C23.2469 14.1526 23.3782 19.4062 23.457 20.8509C23.5358 22.3744 23.8248 24.1869 24.14 25.185C24.4815 26.3671 25.2432 27.7067 26.5566 29.5192C27.5811 30.9639 29.4723 33.4068 33.0973 37.7935L31.994 38.2926C31.3636 38.5815 29.8663 39.0806 28.6318 39.4221C26.7405 39.9212 25.7949 40 22.3275 40C19.0703 39.9737 17.862 39.8687 16.286 39.4221C15.209 39.1332 13.7643 38.6341 13.0813 38.3451C12.3721 38.0299 11.8205 37.7147 11.8205 37.6096C11.8205 37.4783 12.6085 36.4539 13.5541 35.2981C14.526 34.1423 16.1546 32.0672 17.1791 30.7012C18.2298 29.3353 19.333 27.7593 19.6482 27.2339C19.9634 26.6823 20.41 25.5528 20.6464 24.7385C20.9091 23.6615 21.1192 21.0873 21.2768 16.254C21.4081 12.4189 21.487 7.27049 21.487 4.80133Z" fill="currentColor"/>
<path d="M24.4552 8.11105C24.3501 3.85569 24.2713 0.283287 24.2976 0.204484C24.3239 0.125681 25.1644 0.151948 26.1626 0.283287C27.1608 0.388357 28.7894 0.729837 29.8138 1.04505C30.8382 1.36026 32.3618 1.96442 33.2286 2.3847C34.0954 2.83125 35.5139 3.67182 36.3807 4.30224C37.2476 4.9064 38.7711 6.29858 39.7955 7.37556C40.82 8.45253 42.0283 9.97606 42.4748 10.7641C42.9476 11.5521 43.6569 13.0756 44.0509 14.1526C44.6025 15.7024 44.7601 16.7531 44.8652 19.1435C44.9702 21.4288 44.8652 22.6633 44.5237 24.2657C44.261 25.4214 43.6043 27.2602 43.0264 28.3372C42.4748 29.4141 41.6868 30.7012 40.5835 32.0934L33.5438 26.8662C27.1608 22.1117 26.4515 21.5076 25.8737 20.3255C25.5059 19.6163 25.0856 18.3029 24.928 17.4361C24.7704 16.5692 24.5603 12.3664 24.4552 8.11105Z" fill="currentColor"/>
<path d="M12.2145 2.14829C13.2126 1.67547 14.9463 1.04505 16.0233 0.782372C17.1003 0.493428 18.5187 0.257019 20.3574 0.230751L20.1736 7.24422C20.0948 11.1318 19.9372 15.0457 19.8584 15.9914C19.7796 16.937 19.5431 18.3292 19.3067 19.0909C19.0966 19.8264 18.5975 20.8246 18.1772 21.2974C17.7832 21.744 15.1564 23.8191 12.3458 25.9205C9.53516 28.0219 6.54065 30.2547 4.20283 32.0146L3.30973 30.7801C2.83691 30.0708 2.10141 28.8625 1.7074 28.0745C1.31338 27.2865 0.761762 25.7367 0.499086 24.6597C0.157606 23.3726 0 21.7702 0 20.0628C0 18.2766 0.157606 16.7794 0.525353 15.3347C0.840565 14.1789 1.52352 12.4189 2.04888 11.3945C2.62677 10.3175 3.86135 8.68894 5.1222 7.34929C6.27797 6.14098 7.93284 4.66999 8.79967 4.0921C9.6665 3.48794 11.2163 2.62111 12.2145 2.14829Z" fill="currentColor"/>
</svg>
