<svg width="40" height="40" viewBox="0 0 40 40" fill="none" xmlns="http://www.w3.org/2000/svg">
<path d="M20 0C8.95428 0 0 8.95428 0 20C0 31.0457 8.95428 40 20 40C31.0457 40 40 31.0457 40 20C40 8.95428 31.0457 0 20 0ZM19.9926 3.46317C28.0234 3.34357 32.2094 7.23246 34.942 11.6493C35.2571 12.1126 35.0627 12.8181 34.5495 13.0729C33.6094 14.1713 32.4918 14.8327 31.2356 15.191C31.8149 16.786 31.8779 18.4329 31.3954 19.9306C33.0419 20.0386 34.9499 19.7299 36.2778 20.7278C36.7839 21.0837 37.0684 21.5769 37.1658 22.1528C36.1812 29.3317 30.4165 35.0831 22.9507 36.3194C22.0252 36.3128 21.8606 35.5556 21.8606 34.8611V31.6146C20.6298 32.0288 19.3707 32.0257 18.1396 31.6146V34.8611C18.1397 35.5556 17.7466 36.2486 17.035 36.3194C9.54628 35.0827 4.83663 29.304 3.87249 22.1007C4.03673 21.0973 3.80261 20.5668 4.59312 20.2778C5.94344 19.8641 7.294 19.8772 8.60474 19.9306C8.10242 18.3168 8.22377 16.5759 8.77916 15.1563C7.57042 14.8027 6.38437 14.1697 5.45065 13.0903C4.92242 12.8415 4.71814 12.1183 5.04367 11.6493C8.0234 7.23247 12.2094 3.34357 19.9926 3.46317ZM10.7559 15.5208C9.86349 17.1787 10.1 18.9961 10.9013 20.3472C13.2803 23.3947 15.715 26.4785 17.7617 29.0798C19.295 29.9465 20.6906 29.9465 22.2239 29.0798L29.0262 20.4166C30.0277 18.7586 30.0408 17.0279 29.2297 15.5208C22.9249 15.3221 16.2515 15.7928 10.7559 15.5208Z" fill="currentColor"/>
<path d="M10.4641 15.3484C9.53347 17.0248 9.67735 18.9136 10.5129 20.2798C12.9938 23.3612 15.5328 26.4794 17.6672 29.1097C19.2661 29.9861 20.7215 29.9861 22.3205 29.1097L29.4141 20.3499C30.4585 18.6734 30.4722 16.9234 29.6263 15.3995C23.0222 15.3484 16.278 15.3484 10.4641 15.3484Z" fill="currentColor"/>
</svg>
